<svg xmlns="http://www.w3.org/2000/svg" viewBox="0 0 265.35 64.95"><defs><style>.cls-1{fill:#fff;}</style></defs><title>logo_escala</title><g id="Camada_2" data-name="Camada 2"><g id="Layer_1" data-name="Layer 1"><path class="cls-1" d="M45.38,33.53h-7V23.06a3.5,3.5,0,0,0-3.49-3.49H10.47v-7H34.91A10.49,10.49,0,0,1,45.38,23.06Z"/><polygon class="cls-1" points="0 16.08 13.96 30.04 24.43 30.04 10.47 16.08 24.43 2.12 13.96 2.12 0 16.08"/><path class="cls-1" d="M34.91,54.48H10.47A10.49,10.49,0,0,1,0,44V33.53H7V44a3.5,3.5,0,0,0,3.49,3.49H34.91Z"/><polygon class="cls-1" points="45.38 50.99 31.41 37.02 20.94 37.02 34.91 50.99 20.94 64.95 31.41 64.95 45.38 50.99"/><path class="cls-1" d="M95.83,37.16a1.27,1.27,0,0,1-1.2,1.34H70.14c.07,3.44.91,5.41,2.6,7,2,1.9,4.86,2.54,9.08,2.54a34.64,34.64,0,0,0,10.07-1.69.76.76,0,0,1,.35-.07c.42,0,.7.21.91.84L94,50.39a.42.42,0,0,1,.07.28c0,.49-.35.77-.78,1a35.93,35.93,0,0,1-12.52,2.18C67,53.84,62.05,48,62.05,34.55c0-12.73,3.23-19.49,17-19.49,7.18,0,11.47,2,13.93,5.63,2.25,3.17,2.89,7.6,2.89,13.09C95.9,34.7,95.9,36.1,95.83,37.16ZM87.17,26.25c-1.06-4.15-3.38-5.49-8.09-5.49-5.14,0-7.39,1.41-8.31,5.35a31.59,31.59,0,0,0-.63,6.9l17.66-.07A25.83,25.83,0,0,0,87.17,26.25Z"/><path class="cls-1" d="M115.74,53.84A39.92,39.92,0,0,1,103,51.59c-.21-.15-.63-.29-.63-.85v-.35l.77-3.52a.78.78,0,0,1,.78-.77.63.63,0,0,1,.35.07,40.51,40.51,0,0,0,11,1.83c4.64,0,7.81-1.48,7.81-5.21,0-4.72-3.45-4.72-8.16-5.49-3.94-.63-12.18-1.41-12.18-11s8.59-11.26,14.78-11.26a43,43,0,0,1,11.4,1.55.9.9,0,0,1,.78.91v.14l-.64,3.8a.7.7,0,0,1-.77.64h-.21a56,56,0,0,0-9.57-1.2c-4,0-7.82,1-7.82,4.86,0,4.22,4.16,4.57,8.17,5.14,5.84.91,12.17,1.89,12.17,11.18S124.12,53.84,115.74,53.84Z"/><path class="cls-1" d="M166.48,50.88c0,.56-.35.78-.77,1-1.76.84-6.76,1.83-11.4,1.83-13.52,0-17.18-6.27-17.18-19.29s3.66-19.35,17.18-19.35c4.64,0,9.64,1,11.4,1.83a1.07,1.07,0,0,1,.77,1.06.76.76,0,0,1-.07.35l-.63,3.31a.92.92,0,0,1-1,.77.89.89,0,0,1-.42-.07,35.08,35.08,0,0,0-8.8-1.41c-7.88,0-10.27,3.38-10.27,13.51s2.39,13.44,10.27,13.44a35.81,35.81,0,0,0,8.8-1.33h.42a.92.92,0,0,1,1,.77l.63,3.17A.89.89,0,0,1,166.48,50.88Z"/><path class="cls-1" d="M198,52.85a41.44,41.44,0,0,1-9.5,1c-7,0-16.68-.57-16.68-11.83,0-9.22,5.49-10,11.68-11l12.81-2.12v-2.6c0-2.11-.14-3.66-2.18-4.5a16,16,0,0,0-5.77-.71c-5.07,0-10.07,1.41-12.46,2-.14,0-.28.07-.49.07a.67.67,0,0,1-.71-.56l-.84-3.94v-.21a1,1,0,0,1,.77-1,51.67,51.67,0,0,1,15.13-2.32c5,0,8.31.7,10.49,1.9,3.66,2,4,5.35,4,9.08V45.53C204.27,50.67,202.86,51.73,198,52.85Zm-1.69-18.44L186,36.1c-3,.5-6,.78-6,5.77,0,6.06,4.93,6.48,8.73,6.48a23.87,23.87,0,0,0,7.6-1.13Z"/><path class="cls-1" d="M228.55,51.8a.82.82,0,0,1-.56.84,15.58,15.58,0,0,1-5.85.92c-5.55,0-8.65-3-8.65-8.45V2.32c0-.77.35-1,1-1.19L220.31,0h.29c.56,0,.91.42.91,1.06V44.62c0,2.53,1.55,3,3,3a9.86,9.86,0,0,0,2.46-.28h.28c.28,0,.56.14.63.64l.71,3.51Z"/><path class="cls-1" d="M259.09,52.85a41.37,41.37,0,0,1-9.5,1c-7,0-16.68-.57-16.68-11.83,0-9.22,5.49-10,11.68-11l12.81-2.12v-2.6c0-2.11-.14-3.66-2.18-4.5a16,16,0,0,0-5.77-.71c-5.07,0-10.07,1.41-12.46,2-.14,0-.28.07-.49.07a.67.67,0,0,1-.7-.56L235,18.58v-.21a1,1,0,0,1,.77-1,51.76,51.76,0,0,1,15.14-2.32c5,0,8.3.7,10.48,1.9,3.66,2,4,5.35,4,9.08V45.53C265.35,50.67,263.94,51.73,259.09,52.85ZM257.4,34.41,247.06,36.1c-3,.5-6,.78-6,5.77,0,6.06,4.93,6.48,8.73,6.48a23.82,23.82,0,0,0,7.6-1.13Z"/></g></g></svg>